<svg width="27" height="26" xmlns="http://www.w3.org/2000/svg" xmlns:xlink="http://www.w3.org/1999/xlink" xml:space="preserve" overflow="hidden"><defs><clipPath id="clip0"><rect x="1078" y="233" width="27" height="26"/></clipPath></defs><g clip-path="url(#clip0)" transform="translate(-1078 -233)"><path d="M23.8333 12.7292C23.8333 11.8354 23.1021 11.1042 22.2083 11.1042L17.0625 11.1042C16.6292 11.1042 16.2771 10.7521 16.25 10.3188 16.2771 9.83125 17.0625 8.85625 17.0625 5.14583 17.0625 4.25208 16.3313 3.52083 15.4375 3.52083 14.5438 3.52083 13.8125 4.25208 13.8125 5.14583 13.8125 9.2625 9.01875 11.5917 8.9375 11.6458L8.9375 20.3125C10.8604 20.3125 10.9958 22.4792 14.625 22.4792 15.8438 22.4792 19.5 22.4792 19.5 22.4792 20.3938 22.4792 21.125 21.7479 21.125 20.8542 21.125 20.4208 20.9625 20.0417 20.6917 19.7708 20.7458 19.7708 20.8 19.7708 20.8542 19.7708 21.7479 19.7708 22.4792 19.0396 22.4792 18.1458 22.4792 17.7125 22.3167 17.3063 22.0188 17.0083 22.75 16.8458 23.2917 16.1958 23.2917 15.4375 23.2917 14.9771 23.1021 14.5438 22.7771 14.2458 23.4 14.0292 23.8333 13.4333 23.8333 12.7292Z" fill="#00B050" transform="matrix(1.03846 0 0 1 1078 233)"/><path d="M6.22917 10.2917 2.16667 10.2917 2.16667 21.6667 6.22917 21.6667C6.825 21.6667 7.3125 21.1792 7.3125 20.5833L7.3125 11.375C7.3125 10.7792 6.825 10.2917 6.22917 10.2917Z" fill="#00B050" transform="matrix(1.03846 0 0 1 1078 233)"/></g></svg>