<svg width="27" height="26" xmlns="http://www.w3.org/2000/svg" xmlns:xlink="http://www.w3.org/1999/xlink" xml:space="preserve" overflow="hidden"><defs><clipPath id="clip0"><rect x="1121" y="233" width="27" height="26"/></clipPath></defs><g clip-path="url(#clip0)" transform="translate(-1121 -233)"><path d="M23.8333 13.2708C23.8307 14.1672 23.1047 14.8932 22.2083 14.8958L17.0625 14.8958C16.6274 14.9035 16.2724 15.2466 16.25 15.6813 16.2771 16.1688 17.0625 17.1438 17.0625 20.8542 17.0625 21.7516 16.335 22.4792 15.4375 22.4792 14.54 22.4792 13.8125 21.7516 13.8125 20.8542 13.8125 16.7375 9.01875 14.4083 8.9375 14.3542L8.9375 5.6875C10.8604 5.6875 10.9958 3.52083 14.625 3.52083L19.5 3.52083C20.3964 3.52351 21.1223 4.24948 21.125 5.14583 21.1313 5.55038 20.9752 5.94057 20.6917 6.22917L20.8542 6.22917C21.7505 6.23185 22.4765 6.95782 22.4792 7.85417 22.4832 8.27951 22.3175 8.6889 22.0188 8.99167 22.8912 9.18144 23.4446 10.0425 23.2548 10.915 23.1848 11.2368 23.0181 11.5296 22.7771 11.7542 23.4171 11.982 23.8415 12.5915 23.8333 13.2708Z" fill="#C00000" transform="matrix(1.03846 0 0 1 1121 233)"/><path d="M6.22917 15.7083 2.16667 15.7083 2.16667 4.33333 6.22917 4.33333C6.82673 4.33512 7.31071 4.8191 7.3125 5.41667L7.3125 14.625C7.31071 15.2226 6.82673 15.7065 6.22917 15.7083Z" fill="#C00000" transform="matrix(1.03846 0 0 1 1121 233)"/></g></svg>