<svg width="24" height="24" xmlns="http://www.w3.org/2000/svg" xmlns:xlink="http://www.w3.org/1999/xlink" xml:space="preserve" overflow="hidden"><defs><clipPath id="clip0"><rect x="1024" y="234" width="24" height="24"/></clipPath></defs><g clip-path="url(#clip0)" transform="translate(-1024 -234)"><path d="M1039.47 249.6C1041.43 247.725 1041.53 244.625 1039.68 242.625 1041.65 243.65 1043.28 245.225 1044.22 246.275 1043.22 247.25 1041.53 248.7 1039.47 249.6ZM1029.65 244.45C1030.47 243.75 1031.35 243.15 1032.3 242.65 1030.47 244.65 1030.57 247.725 1032.53 249.6 1030.47 248.7 1028.75 247.25 1027.78 246.275 1028.35 245.625 1028.97 245.025 1029.65 244.45L1029.65 244.45ZM1036 250C1033.8 250 1032 248.2 1032 246 1032 243.8 1033.8 242 1036 242 1038.2 242 1040 243.8 1040 246 1040 248.2 1038.2 250 1036 250ZM1045.72 245.575C1044.28 243.875 1040.47 240 1036 240 1031.53 240 1027.72 243.875 1026.28 245.575 1025.9 246.025 1025.93 246.65 1026.32 247.075 1027.8 248.625 1031.57 252 1036 252 1040.43 252 1044.2 248.625 1045.7 247.075 1046.07 246.675 1046.1 246.025 1045.72 245.575Z" fill="#3E4095"/><path d="M1038.5 246C1038.5 247.381 1037.38 248.5 1036 248.5 1034.62 248.5 1033.5 247.381 1033.5 246 1033.5 244.619 1034.62 243.5 1036 243.5 1037.38 243.5 1038.5 244.619 1038.5 246Z" fill="#3E4095"/></g></svg>