<svg width="96" height="96" xmlns="http://www.w3.org/2000/svg" xmlns:xlink="http://www.w3.org/1999/xlink" xml:space="preserve" overflow="hidden"><defs><clipPath id="clip0"><rect x="510" y="486" width="96" height="96"/></clipPath></defs><g clip-path="url(#clip0)" transform="translate(-510 -486)"><path d="M537 518C537 519.105 536.105 520 535 520 533.895 520 533 519.105 533 518 533 516.895 533.895 516 535 516 536.105 516 537 516.895 537 518Z"/><path d="M537 526C537 527.105 536.105 528 535 528 533.895 528 533 527.105 533 526 533 524.895 533.895 524 535 524 536.105 524 537 524.895 537 526Z"/><path d="M533 522C533 523.105 532.105 524 531 524 529.895 524 529 523.105 529 522 529 520.895 529.895 520 531 520 532.105 520 533 520.895 533 522Z"/><path d="M541 522C541 523.105 540.105 524 539 524 537.895 524 537 523.105 537 522 537 520.895 537.895 520 539 520 540.105 520 541 520.895 541 522Z"/><path d="M565 514C565 515.105 564.105 516 563 516 561.895 516 561 515.105 561 514 561 512.895 561.895 512 563 512 564.105 512 565 512.895 565 514Z"/><path d="M565 522C565 523.105 564.105 524 563 524 561.895 524 561 523.105 561 522 561 520.895 561.895 520 563 520 564.105 520 565 520.895 565 522Z"/><path d="M561 518C561 519.105 560.105 520 559 520 557.895 520 557 519.105 557 518 557 516.895 557.895 516 559 516 560.105 516 561 516.895 561 518Z"/><path d="M569 518C569 519.105 568.105 520 567 520 565.895 520 565 519.105 565 518 565 516.895 565.895 516 567 516 568.105 516 569 516.895 569 518Z"/><path d="M592 531 586 537 578 537 578 559 586 559 592 565 598 565 598 531Z"/><path d="M563 527C558 527 554 523 554 518 554 513 558 509 563 509 568 509 572 513 572 518 572 523 568 527 563 527ZM566 559C564.9 559 564 558.1 564 557 564 555.9 564.9 555 566 555 567.1 555 568 555.9 568 557 568 558.1 567.1 559 566 559ZM547 531C548.3 529.2 549.3 527.2 549.7 524.9 551 527.4 553.1 529.5 555.5 531L547 531ZM535 531C530 531 526 527 526 522 526 517 530 513 535 513 540 513 544 517 544 522 544 527 540 531 535 531ZM570.4 531C574.9 528.4 578 523.6 578 518 578 509.7 571.3 503 563 503 555.7 503 549.7 508.2 548.3 515.1 545.8 510.3 540.8 507 535 507 526.7 507 520 513.7 520 522 520 526.9 522.4 531.2 526 534L526 537 524 537 522 535 518 535 518 545 522 545 524 543 526 543 526 561C526 563.2 527.8 565 530 565L570 565C572.2 565 574 563.2 574 561L574 535C574 532.9 572.4 531.2 570.4 531Z"/></g></svg>