<svg width="96" height="96" xmlns="http://www.w3.org/2000/svg" xmlns:xlink="http://www.w3.org/1999/xlink" xml:space="preserve" overflow="hidden"><defs><clipPath id="clip0"><rect x="255" y="534" width="96" height="96"/></clipPath></defs><g clip-path="url(#clip0)" transform="translate(-255 -534)"><path d="M285.5 572 343.1 561.8 340.3 546 261.6 560 264.2 574.7 264.4 614C264.4 616.2 266.2 618 268.4 618L340.4 618C342.6 618 344.4 616.2 344.4 614L344.4 572 285.5 572ZM330.4 551.8 337.1 550.6 337.3 551.8 331.8 559.6 324 561.1 330.4 551.8ZM314.2 554.7 322.1 553.3 315.6 562.6 307.7 564 314.2 554.7ZM297.9 557.6 305.8 556.2 299.3 565.5 291.4 566.9 297.9 557.6ZM281.7 560.5 289.6 559.1 283.1 568.4 275.2 569.8 281.7 560.5ZM273.3 562 267.5 570.3 266.2 563.2 273.3 562ZM328.4 597 280.4 597 280.4 585 328.4 585 328.4 597Z"/></g></svg>