<svg width="96" height="96" xmlns="http://www.w3.org/2000/svg" xmlns:xlink="http://www.w3.org/1999/xlink" xml:space="preserve" overflow="hidden"><defs><clipPath id="clip0"><rect x="258" y="404" width="96" height="96"/></clipPath></defs><g clip-path="url(#clip0)" transform="translate(-258 -404)"><path d="M282.985 467.966C282.985 470.726 280.748 472.963 277.988 472.963 275.228 472.963 272.991 470.726 272.991 467.966 272.991 465.206 275.228 462.969 277.988 462.969 280.748 462.969 282.985 465.206 282.985 467.966Z"/><path d="M310.905 467.166C311.347 469.89 309.497 472.457 306.773 472.899 304.049 473.341 301.482 471.491 301.04 468.767 300.598 466.042 302.448 463.476 305.172 463.034 307.896 462.592 310.463 464.442 310.905 467.166Z"/><path d="M338.954 467.966C338.954 470.726 336.717 472.963 333.957 472.963 331.197 472.963 328.96 470.726 328.96 467.966 328.96 465.206 331.197 462.969 333.957 462.969 336.717 462.969 338.954 465.206 338.954 467.966Z"/><path d="M285.984 477.961 285.884 477.961C285.429 476.183 283.819 474.944 281.984 474.961L273.984 474.961C272.159 474.975 270.566 476.201 270.084 477.961L269.984 477.961C267.777 477.966 265.989 479.754 265.984 481.961L267.984 487.961 287.983 487.961 289.983 481.961C289.978 479.755 288.19 477.967 285.984 477.961Z"/><path d="M313.968 477.961C313.44 476.19 311.816 474.972 309.968 474.961L301.968 474.961C300.143 474.975 298.55 476.201 298.068 477.961L297.968 477.961C295.761 477.966 293.973 479.754 293.968 481.961L295.968 487.961 315.967 487.961 317.967 481.961C317.962 479.754 316.175 477.966 313.968 477.961Z"/><path d="M341.953 477.961C341.425 476.19 339.801 474.972 337.953 474.961L329.953 474.961C328.128 474.975 326.534 476.2 326.053 477.961L325.953 477.961C323.746 477.966 321.958 479.754 321.953 481.961L323.953 487.961 343.952 487.961 345.952 481.961C345.947 479.754 344.16 477.966 341.953 477.961Z"/><path d="M352 417 260 417 260 472 271.094 472C268.86 468.206 270.124 463.319 273.918 461.085 274.198 460.92 274.489 460.772 274.788 460.642 273.741 458.329 272.459 456.129 270.963 454.078 279.787 448.08 286.272 439.223 289.325 429L322.675 429C325.728 439.223 332.213 448.08 341.037 454.078 339.536 456.136 338.25 458.342 337.2 460.663 341.227 462.438 343.053 467.141 341.278 471.168 341.152 471.453 341.009 471.731 340.851 472L352 472Z"/></g></svg>